%TF.GenerationSoftware,KiCad,Pcbnew,8.0.6*%
%TF.CreationDate,2025-06-27T07:10:50+02:00*%
%TF.ProjectId,6502,36353032-2e6b-4696-9361-645f70636258,1*%
%TF.SameCoordinates,Original*%
%TF.FileFunction,Soldermask,Bot*%
%TF.FilePolarity,Negative*%
%FSLAX46Y46*%
G04 Gerber Fmt 4.6, Leading zero omitted, Abs format (unit mm)*
G04 Created by KiCad (PCBNEW 8.0.6) date 2025-06-27 07:10:50*
%MOMM*%
%LPD*%
G01*
G04 APERTURE LIST*
G04 Aperture macros list*
%AMRoundRect*
0 Rectangle with rounded corners*
0 $1 Rounding radius*
0 $2 $3 $4 $5 $6 $7 $8 $9 X,Y pos of 4 corners*
0 Add a 4 corners polygon primitive as box body*
4,1,4,$2,$3,$4,$5,$6,$7,$8,$9,$2,$3,0*
0 Add four circle primitives for the rounded corners*
1,1,$1+$1,$2,$3*
1,1,$1+$1,$4,$5*
1,1,$1+$1,$6,$7*
1,1,$1+$1,$8,$9*
0 Add four rect primitives between the rounded corners*
20,1,$1+$1,$2,$3,$4,$5,0*
20,1,$1+$1,$4,$5,$6,$7,0*
20,1,$1+$1,$6,$7,$8,$9,0*
20,1,$1+$1,$8,$9,$2,$3,0*%
%AMFreePoly0*
4,1,19,0.500000,-0.750000,0.000000,-0.750000,0.000000,-0.744911,-0.071157,-0.744911,-0.207708,-0.704816,-0.327430,-0.627875,-0.420627,-0.520320,-0.479746,-0.390866,-0.500000,-0.250000,-0.500000,0.250000,-0.479746,0.390866,-0.420627,0.520320,-0.327430,0.627875,-0.207708,0.704816,-0.071157,0.744911,0.000000,0.744911,0.000000,0.750000,0.500000,0.750000,0.500000,-0.750000,0.500000,-0.750000,
$1*%
%AMFreePoly1*
4,1,19,0.000000,0.744911,0.071157,0.744911,0.207708,0.704816,0.327430,0.627875,0.420627,0.520320,0.479746,0.390866,0.500000,0.250000,0.500000,-0.250000,0.479746,-0.390866,0.420627,-0.520320,0.327430,-0.627875,0.207708,-0.704816,0.071157,-0.744911,0.000000,-0.744911,0.000000,-0.750000,-0.500000,-0.750000,-0.500000,0.750000,0.000000,0.750000,0.000000,0.744911,0.000000,0.744911,
$1*%
G04 Aperture macros list end*
%ADD10R,1.700000X1.700000*%
%ADD11O,1.700000X1.700000*%
%ADD12R,1.600000X1.600000*%
%ADD13O,1.600000X1.600000*%
%ADD14R,1.500000X1.600000*%
%ADD15C,1.600000*%
%ADD16C,3.000000*%
%ADD17R,1.440000X2.000000*%
%ADD18O,1.440000X2.000000*%
%ADD19C,1.500000*%
%ADD20C,0.650000*%
%ADD21O,1.000000X2.100000*%
%ADD22O,1.000000X1.600000*%
%ADD23C,4.000000*%
%ADD24C,7.000000*%
%ADD25RoundRect,0.250000X-0.450000X0.262500X-0.450000X-0.262500X0.450000X-0.262500X0.450000X0.262500X0*%
%ADD26FreePoly0,90.000000*%
%ADD27FreePoly1,90.000000*%
%ADD28RoundRect,0.250000X0.250000X0.475000X-0.250000X0.475000X-0.250000X-0.475000X0.250000X-0.475000X0*%
%ADD29RoundRect,0.250000X-0.475000X0.250000X-0.475000X-0.250000X0.475000X-0.250000X0.475000X0.250000X0*%
%ADD30FreePoly0,180.000000*%
%ADD31FreePoly1,180.000000*%
%ADD32RoundRect,0.250000X0.450000X-0.262500X0.450000X0.262500X-0.450000X0.262500X-0.450000X-0.262500X0*%
%ADD33RoundRect,0.250000X0.475000X-0.250000X0.475000X0.250000X-0.475000X0.250000X-0.475000X-0.250000X0*%
%ADD34RoundRect,0.250000X-0.250000X-0.475000X0.250000X-0.475000X0.250000X0.475000X-0.250000X0.475000X0*%
%ADD35R,2.000000X1.000000*%
%ADD36FreePoly0,270.000000*%
%ADD37FreePoly1,270.000000*%
%ADD38FreePoly0,0.000000*%
%ADD39FreePoly1,0.000000*%
G04 APERTURE END LIST*
D10*
%TO.C,J4*%
X123035923Y-129385923D03*
D11*
X125575923Y-129385923D03*
%TD*%
D10*
%TO.C,J5*%
X193515923Y-97254923D03*
D11*
X196055923Y-97254923D03*
%TD*%
D12*
%TO.C,U10*%
X135735923Y-121765923D03*
D13*
X138275923Y-121765923D03*
X140815923Y-121765923D03*
X143355923Y-121765923D03*
X145895923Y-121765923D03*
X148435923Y-121765923D03*
X150975923Y-121765923D03*
X153515923Y-121765923D03*
X156055923Y-121765923D03*
X158595923Y-121765923D03*
X158595923Y-114145923D03*
X156055923Y-114145923D03*
X153515923Y-114145923D03*
X150975923Y-114145923D03*
X148435923Y-114145923D03*
X145895923Y-114145923D03*
X143355923Y-114145923D03*
X140815923Y-114145923D03*
X138275923Y-114145923D03*
X135735923Y-114145923D03*
%TD*%
D12*
%TO.C,U11*%
X135735923Y-111595923D03*
D13*
X138275923Y-111595923D03*
X140815923Y-111595923D03*
X143355923Y-111595923D03*
X145895923Y-111595923D03*
X148435923Y-111595923D03*
X150975923Y-111595923D03*
X153515923Y-111595923D03*
X156055923Y-111595923D03*
X158595923Y-111595923D03*
X158595923Y-103975923D03*
X156055923Y-103975923D03*
X153515923Y-103975923D03*
X150975923Y-103975923D03*
X148435923Y-103975923D03*
X145895923Y-103975923D03*
X143355923Y-103975923D03*
X140815923Y-103975923D03*
X138275923Y-103975923D03*
X135735923Y-103975923D03*
%TD*%
D12*
%TO.C,U18*%
X137015923Y-72240923D03*
D13*
X139555923Y-72240923D03*
X142095923Y-72240923D03*
X144635923Y-72240923D03*
X147175923Y-72240923D03*
X149715923Y-72240923D03*
X152255923Y-72240923D03*
X154795923Y-72240923D03*
X157335923Y-72240923D03*
X159875923Y-72240923D03*
X162415923Y-72240923D03*
X164955923Y-72240923D03*
X167495923Y-72240923D03*
X170035923Y-72240923D03*
X170035923Y-57000923D03*
X167495923Y-57000923D03*
X164955923Y-57000923D03*
X162415923Y-57000923D03*
X159875923Y-57000923D03*
X157335923Y-57000923D03*
X154795923Y-57000923D03*
X152255923Y-57000923D03*
X149715923Y-57000923D03*
X147175923Y-57000923D03*
X144635923Y-57000923D03*
X142095923Y-57000923D03*
X139555923Y-57000923D03*
X137015923Y-57000923D03*
%TD*%
D12*
%TO.C,U3*%
X77315923Y-125575923D03*
D13*
X79855923Y-125575923D03*
X82395923Y-125575923D03*
X84935923Y-125575923D03*
X87475923Y-125575923D03*
X90015923Y-125575923D03*
X92555923Y-125575923D03*
X95095923Y-125575923D03*
X97635923Y-125575923D03*
X100175923Y-125575923D03*
X102715923Y-125575923D03*
X105255923Y-125575923D03*
X107795923Y-125575923D03*
X110335923Y-125575923D03*
X112875923Y-125575923D03*
X115415923Y-125575923D03*
X117955923Y-125575923D03*
X120495923Y-125575923D03*
X123035923Y-125575923D03*
X125575923Y-125575923D03*
X125575923Y-110335923D03*
X123035923Y-110335923D03*
X120495923Y-110335923D03*
X117955923Y-110335923D03*
X115415923Y-110335923D03*
X112875923Y-110335923D03*
X110335923Y-110335923D03*
X107795923Y-110335923D03*
X105255923Y-110335923D03*
X102715923Y-110335923D03*
X100175923Y-110335923D03*
X97635923Y-110335923D03*
X95095923Y-110335923D03*
X92555923Y-110335923D03*
X90015923Y-110335923D03*
X87475923Y-110335923D03*
X84935923Y-110335923D03*
X82395923Y-110335923D03*
X79855923Y-110335923D03*
X77315923Y-110335923D03*
%TD*%
D10*
%TO.C,J3*%
X117955923Y-129385923D03*
D11*
X120495923Y-129385923D03*
%TD*%
D12*
%TO.C,U2*%
X77315923Y-107795923D03*
D13*
X79855923Y-107795923D03*
X82395923Y-107795923D03*
X84935923Y-107795923D03*
X87475923Y-107795923D03*
X90015923Y-107795923D03*
X92555923Y-107795923D03*
X95095923Y-107795923D03*
X97635923Y-107795923D03*
X100175923Y-107795923D03*
X102715923Y-107795923D03*
X105255923Y-107795923D03*
X107795923Y-107795923D03*
X110335923Y-107795923D03*
X112875923Y-107795923D03*
X115415923Y-107795923D03*
X117955923Y-107795923D03*
X120495923Y-107795923D03*
X123035923Y-107795923D03*
X125575923Y-107795923D03*
X125575923Y-92555923D03*
X123035923Y-92555923D03*
X120495923Y-92555923D03*
X117955923Y-92555923D03*
X115415923Y-92555923D03*
X112875923Y-92555923D03*
X110335923Y-92555923D03*
X107795923Y-92555923D03*
X105255923Y-92555923D03*
X102715923Y-92555923D03*
X100175923Y-92555923D03*
X97635923Y-92555923D03*
X95095923Y-92555923D03*
X92555923Y-92555923D03*
X90015923Y-92555923D03*
X87475923Y-92555923D03*
X84935923Y-92555923D03*
X82395923Y-92555923D03*
X79855923Y-92555923D03*
X77315923Y-92555923D03*
%TD*%
D12*
%TO.C,U16*%
X137015923Y-90020923D03*
D13*
X139555923Y-90020923D03*
X142095923Y-90020923D03*
X144635923Y-90020923D03*
X147175923Y-90020923D03*
X149715923Y-90020923D03*
X152255923Y-90020923D03*
X154795923Y-90020923D03*
X157335923Y-90020923D03*
X159875923Y-90020923D03*
X162415923Y-90020923D03*
X164955923Y-90020923D03*
X167495923Y-90020923D03*
X170035923Y-90020923D03*
X170035923Y-74780923D03*
X167495923Y-74780923D03*
X164955923Y-74780923D03*
X162415923Y-74780923D03*
X159875923Y-74780923D03*
X157335923Y-74780923D03*
X154795923Y-74780923D03*
X152255923Y-74780923D03*
X149715923Y-74780923D03*
X147175923Y-74780923D03*
X144635923Y-74780923D03*
X142095923Y-74780923D03*
X139555923Y-74780923D03*
X137015923Y-74780923D03*
%TD*%
D12*
%TO.C,U4*%
X109065923Y-64615923D03*
D13*
X111605923Y-64615923D03*
X114145923Y-64615923D03*
X116685923Y-64615923D03*
X119225923Y-64615923D03*
X121765923Y-64615923D03*
X124305923Y-64615923D03*
X126845923Y-64615923D03*
X129385923Y-64615923D03*
X131925923Y-64615923D03*
X131925923Y-56995923D03*
X129385923Y-56995923D03*
X126845923Y-56995923D03*
X124305923Y-56995923D03*
X121765923Y-56995923D03*
X119225923Y-56995923D03*
X116685923Y-56995923D03*
X114145923Y-56995923D03*
X111605923Y-56995923D03*
X109065923Y-56995923D03*
%TD*%
D10*
%TO.C,J2*%
X77315923Y-129385923D03*
D11*
X79855923Y-129385923D03*
X82395923Y-129385923D03*
X84935923Y-129385923D03*
X87475923Y-129385923D03*
X90015923Y-129385923D03*
X92555923Y-129385923D03*
X95095923Y-129385923D03*
X97635923Y-129385923D03*
X100175923Y-129385923D03*
X102715923Y-129385923D03*
X105255923Y-129385923D03*
X107795923Y-129385923D03*
X110335923Y-129385923D03*
X112875923Y-129385923D03*
X115415923Y-129385923D03*
%TD*%
D10*
%TO.C,J14*%
X128115923Y-129385923D03*
D11*
X128115923Y-126845923D03*
X130655923Y-129385923D03*
X130655923Y-126845923D03*
X133195923Y-129385923D03*
X133195923Y-126845923D03*
X135735923Y-129385923D03*
X135735923Y-126845923D03*
X138275923Y-129385923D03*
X138275923Y-126845923D03*
X140815923Y-129385923D03*
X140815923Y-126845923D03*
%TD*%
D14*
%TO.C,J17*%
X85090000Y-67310000D03*
D15*
X85090000Y-69810000D03*
X85090000Y-71810000D03*
X85090000Y-74310000D03*
D16*
X82380000Y-64240000D03*
X82380000Y-77380000D03*
%TD*%
D17*
%TO.C,U5*%
X211935923Y-103985923D03*
D18*
X209395923Y-103985923D03*
X206855923Y-103985923D03*
X204315923Y-103985923D03*
X201775923Y-103985923D03*
X199235923Y-103985923D03*
X196695923Y-103985923D03*
X194155923Y-103985923D03*
X191615923Y-103985923D03*
X189075923Y-103985923D03*
X186535923Y-103985923D03*
X183995923Y-103985923D03*
X181455923Y-103985923D03*
X178915923Y-103985923D03*
X176375923Y-103985923D03*
X173835923Y-103985923D03*
X173835923Y-119225923D03*
X176375923Y-119225923D03*
X178915923Y-119225923D03*
X181455923Y-119225923D03*
X183995923Y-119225923D03*
X186535923Y-119225923D03*
X189075923Y-119225923D03*
X191615923Y-119225923D03*
X194155923Y-119225923D03*
X196695923Y-119225923D03*
X199235923Y-119225923D03*
X201775923Y-119225923D03*
X204315923Y-119225923D03*
X206855923Y-119225923D03*
X209395923Y-119225923D03*
X211935923Y-119225923D03*
%TD*%
D12*
%TO.C,U8*%
X149700923Y-100165923D03*
D13*
X152240923Y-100165923D03*
X154780923Y-100165923D03*
X157320923Y-100165923D03*
X159860923Y-100165923D03*
X162400923Y-100165923D03*
X164940923Y-100165923D03*
X164940923Y-92545923D03*
X162400923Y-92545923D03*
X159860923Y-92545923D03*
X157320923Y-92545923D03*
X154780923Y-92545923D03*
X152240923Y-92545923D03*
X149700923Y-92545923D03*
%TD*%
D12*
%TO.C,U1*%
X93820923Y-90005923D03*
D13*
X96360923Y-90005923D03*
X98900923Y-90005923D03*
X101440923Y-90005923D03*
X103980923Y-90005923D03*
X106520923Y-90005923D03*
X109060923Y-90005923D03*
X109060923Y-82385923D03*
X106520923Y-82385923D03*
X103980923Y-82385923D03*
X101440923Y-82385923D03*
X98900923Y-82385923D03*
X96360923Y-82385923D03*
X93820923Y-82385923D03*
%TD*%
D12*
%TO.C,U6*%
X114160923Y-79845923D03*
D13*
X116700923Y-79845923D03*
X119240923Y-79845923D03*
X121780923Y-79845923D03*
X124320923Y-79845923D03*
X126860923Y-79845923D03*
X129400923Y-79845923D03*
X131940923Y-79845923D03*
X131940923Y-72225923D03*
X129400923Y-72225923D03*
X126860923Y-72225923D03*
X124320923Y-72225923D03*
X121780923Y-72225923D03*
X119240923Y-72225923D03*
X116700923Y-72225923D03*
X114160923Y-72225923D03*
%TD*%
D12*
%TO.C,U7*%
X114160923Y-90005923D03*
D13*
X116700923Y-90005923D03*
X119240923Y-90005923D03*
X121780923Y-90005923D03*
X124320923Y-90005923D03*
X126860923Y-90005923D03*
X129400923Y-90005923D03*
X131940923Y-90005923D03*
X131940923Y-82385923D03*
X129400923Y-82385923D03*
X126860923Y-82385923D03*
X124320923Y-82385923D03*
X121780923Y-82385923D03*
X119240923Y-82385923D03*
X116700923Y-82385923D03*
X114160923Y-82385923D03*
%TD*%
D10*
%TO.C,J12*%
X86205923Y-56995923D03*
D11*
X88745923Y-56995923D03*
X91285923Y-56995923D03*
X93825923Y-56995923D03*
X96365923Y-56995923D03*
X98905923Y-56995923D03*
X101445923Y-56995923D03*
X103985923Y-56995923D03*
%TD*%
D12*
%TO.C,U19*%
X210566000Y-78486000D03*
D13*
X210566000Y-81026000D03*
X210566000Y-83566000D03*
X210566000Y-86106000D03*
X210566000Y-88646000D03*
X210566000Y-91186000D03*
X210566000Y-93726000D03*
X210566000Y-96266000D03*
X218186000Y-96266000D03*
X218186000Y-93726000D03*
X218186000Y-91186000D03*
X218186000Y-88646000D03*
X218186000Y-86106000D03*
X218186000Y-83566000D03*
X218186000Y-81026000D03*
X218186000Y-78486000D03*
%TD*%
D10*
%TO.C,J11*%
X220825923Y-91285923D03*
D11*
X220825923Y-88745923D03*
X220825923Y-86205923D03*
X220825923Y-83665923D03*
X220825923Y-81125923D03*
%TD*%
D12*
%TO.C,U17*%
X129380923Y-100165923D03*
D13*
X131920923Y-100165923D03*
X134460923Y-100165923D03*
X137000923Y-100165923D03*
X139540923Y-100165923D03*
X142080923Y-100165923D03*
X144620923Y-100165923D03*
X144620923Y-92545923D03*
X142080923Y-92545923D03*
X139540923Y-92545923D03*
X137000923Y-92545923D03*
X134460923Y-92545923D03*
X131920923Y-92545923D03*
X129380923Y-92545923D03*
%TD*%
D12*
%TO.C,U14*%
X185275923Y-78580923D03*
D13*
X185275923Y-81120923D03*
X185275923Y-83660923D03*
X185275923Y-86200923D03*
X185275923Y-88740923D03*
X185275923Y-91280923D03*
X185275923Y-93820923D03*
X192895923Y-93820923D03*
X192895923Y-91280923D03*
X192895923Y-88740923D03*
X192895923Y-86200923D03*
X192895923Y-83660923D03*
X192895923Y-81120923D03*
X192895923Y-78580923D03*
%TD*%
D19*
%TO.C,Y1*%
X196700000Y-86950000D03*
X196700000Y-91830000D03*
%TD*%
D12*
%TO.C,U20*%
X175115923Y-78600923D03*
D13*
X175115923Y-81140923D03*
X175115923Y-83680923D03*
X175115923Y-86220923D03*
X175115923Y-88760923D03*
X175115923Y-91300923D03*
X175115923Y-93840923D03*
X175115923Y-96380923D03*
X182735923Y-96380923D03*
X182735923Y-93840923D03*
X182735923Y-91300923D03*
X182735923Y-88760923D03*
X182735923Y-86220923D03*
X182735923Y-83680923D03*
X182735923Y-81140923D03*
X182735923Y-78600923D03*
%TD*%
D20*
%TO.C,J9*%
X179890000Y-61065000D03*
X174110000Y-61065000D03*
D21*
X181320000Y-61565000D03*
D22*
X181320000Y-57385000D03*
D21*
X172680000Y-61565000D03*
D22*
X172680000Y-57385000D03*
%TD*%
D10*
%TO.C,J7*%
X185265923Y-74775923D03*
D11*
X187805923Y-74775923D03*
X190345923Y-74775923D03*
X192885923Y-74775923D03*
X195425923Y-74775923D03*
X197965923Y-74775923D03*
X200505923Y-74775923D03*
X203045923Y-74775923D03*
X205585923Y-74775923D03*
X208125923Y-74775923D03*
X210665923Y-74775923D03*
X213205923Y-74775923D03*
%TD*%
D12*
%TO.C,U12*%
X91300923Y-79845923D03*
D13*
X93840923Y-79845923D03*
X96380923Y-79845923D03*
X98920923Y-79845923D03*
X101460923Y-79845923D03*
X104000923Y-79845923D03*
X106540923Y-79845923D03*
X109080923Y-79845923D03*
X109080923Y-72225923D03*
X106540923Y-72225923D03*
X104000923Y-72225923D03*
X101460923Y-72225923D03*
X98920923Y-72225923D03*
X96380923Y-72225923D03*
X93840923Y-72225923D03*
X91300923Y-72225923D03*
%TD*%
D10*
%TO.C,J10*%
X175500000Y-64900000D03*
D11*
X178040000Y-64900000D03*
%TD*%
D23*
%TO.C,J6*%
X212870200Y-66661131D03*
X187870200Y-66661131D03*
D12*
X196055200Y-68081131D03*
D15*
X198345200Y-68081131D03*
X200635200Y-68081131D03*
X202925200Y-68081131D03*
X205215200Y-68081131D03*
X194910200Y-66101131D03*
X197200200Y-66101131D03*
X199490200Y-66101131D03*
X201780200Y-66101131D03*
X204070200Y-66101131D03*
X196055200Y-64121131D03*
X198345200Y-64121131D03*
X200635200Y-64121131D03*
X202925200Y-64121131D03*
X205215200Y-64121131D03*
%TD*%
D10*
%TO.C,J15*%
X181465923Y-129385923D03*
D11*
X181465923Y-126845923D03*
X184005923Y-129385923D03*
X184005923Y-126845923D03*
X186545923Y-129385923D03*
X186545923Y-126845923D03*
X189085923Y-129385923D03*
X189085923Y-126845923D03*
%TD*%
D10*
%TO.C,J16*%
X194155923Y-129385923D03*
D11*
X194155923Y-126845923D03*
X196695923Y-129385923D03*
X196695923Y-126845923D03*
X199235923Y-129385923D03*
X199235923Y-126845923D03*
X201775923Y-129385923D03*
X201775923Y-126845923D03*
X204315923Y-129385923D03*
X204315923Y-126845923D03*
X206855923Y-129385923D03*
X206855923Y-126845923D03*
X209395923Y-129385923D03*
X209395923Y-126845923D03*
X211935923Y-129385923D03*
X211935923Y-126845923D03*
%TD*%
D10*
%TO.C,J20*%
X161140923Y-129390923D03*
D11*
X161140923Y-126850923D03*
X163680923Y-129390923D03*
X163680923Y-126850923D03*
X166220923Y-129390923D03*
X166220923Y-126850923D03*
X168760923Y-129390923D03*
X168760923Y-126850923D03*
X171300923Y-129390923D03*
X171300923Y-126850923D03*
%TD*%
D10*
%TO.C,J1*%
X83616800Y-59542600D03*
D11*
X83616800Y-57002600D03*
%TD*%
D24*
%TO.C,H2*%
X217777923Y-60043923D03*
%TD*%
D12*
%TO.C,U21*%
X73909000Y-89906000D03*
D13*
X76449000Y-89906000D03*
X78989000Y-89906000D03*
X81529000Y-89906000D03*
X84069000Y-89906000D03*
X86609000Y-89906000D03*
X89149000Y-89906000D03*
X89149000Y-82286000D03*
X86609000Y-82286000D03*
X84069000Y-82286000D03*
X81529000Y-82286000D03*
X78989000Y-82286000D03*
X76449000Y-82286000D03*
X73909000Y-82286000D03*
%TD*%
D24*
%TO.C,H3*%
X119225923Y-117574923D03*
%TD*%
%TO.C,H1*%
X76553923Y-60043923D03*
%TD*%
D12*
%TO.C,U13*%
X200416000Y-78481000D03*
D13*
X200416000Y-81021000D03*
X200416000Y-83561000D03*
X200416000Y-86101000D03*
X200416000Y-88641000D03*
X200416000Y-91181000D03*
X200416000Y-93721000D03*
X208036000Y-93721000D03*
X208036000Y-91181000D03*
X208036000Y-88641000D03*
X208036000Y-86101000D03*
X208036000Y-83561000D03*
X208036000Y-81021000D03*
X208036000Y-78481000D03*
%TD*%
D10*
%TO.C,J8*%
X220726000Y-69850000D03*
D11*
X220726000Y-72390000D03*
%TD*%
D24*
%TO.C,H4*%
X217777923Y-126337923D03*
%TD*%
D25*
%TO.C,R13*%
X162560000Y-95937700D03*
X162560000Y-97762700D03*
%TD*%
%TO.C,R14*%
X160655000Y-95939600D03*
X160655000Y-97764600D03*
%TD*%
%TO.C,R15*%
X158775400Y-95937700D03*
X158775400Y-97762700D03*
%TD*%
%TO.C,R16*%
X156895800Y-95939600D03*
X156895800Y-97764600D03*
%TD*%
D26*
%TO.C,R36*%
X150825200Y-119522000D03*
D27*
X150825200Y-118222000D03*
%TD*%
D28*
%TO.C,C34*%
X94818200Y-105410000D03*
X92918200Y-105410000D03*
%TD*%
D26*
%TO.C,R32*%
X142798800Y-119547400D03*
D27*
X142798800Y-118247400D03*
%TD*%
D25*
%TO.C,R20*%
X159258000Y-83415500D03*
X159258000Y-85240500D03*
%TD*%
D29*
%TO.C,C32*%
X104825800Y-63210400D03*
X104825800Y-65110400D03*
%TD*%
D26*
%TO.C,R31*%
X140792200Y-119547400D03*
D27*
X140792200Y-118247400D03*
%TD*%
D26*
%TO.C,R39*%
X136804400Y-109463600D03*
D27*
X136804400Y-108163600D03*
%TD*%
D28*
%TO.C,C29*%
X215442800Y-96316800D03*
X213542800Y-96316800D03*
%TD*%
D30*
%TO.C,R26*%
X142250000Y-85550000D03*
D31*
X140950000Y-85550000D03*
%TD*%
D32*
%TO.C,R49*%
X107137200Y-118924700D03*
X107137200Y-117099700D03*
%TD*%
D33*
%TO.C,C30*%
X207746600Y-112293400D03*
X207746600Y-110393400D03*
%TD*%
D26*
%TO.C,R44*%
X151409400Y-109524800D03*
D27*
X151409400Y-108224800D03*
%TD*%
D34*
%TO.C,C27*%
X117033000Y-85801200D03*
X118933000Y-85801200D03*
%TD*%
D35*
%TO.C,U9*%
X90460923Y-114825923D03*
X90460923Y-113555923D03*
X90460923Y-116095923D03*
X90460923Y-117365923D03*
X90460923Y-118635923D03*
X90460923Y-119905923D03*
X90460923Y-121175923D03*
X90460923Y-122445923D03*
%TD*%
D29*
%TO.C,C33*%
X75768200Y-85486200D03*
X75768200Y-87386200D03*
%TD*%
D30*
%TO.C,R27*%
X142239600Y-87556600D03*
D31*
X140939600Y-87556600D03*
%TD*%
D25*
%TO.C,R21*%
X161290000Y-83415500D03*
X161290000Y-85240500D03*
%TD*%
D28*
%TO.C,C28*%
X92710000Y-74904600D03*
X90810000Y-74904600D03*
%TD*%
D26*
%TO.C,R34*%
X146812000Y-119522000D03*
D27*
X146812000Y-118222000D03*
%TD*%
D36*
%TO.C,R28*%
X77500000Y-104150000D03*
D37*
X77500000Y-105450000D03*
%TD*%
D38*
%TO.C,R29*%
X83028000Y-104673400D03*
D39*
X84328000Y-104673400D03*
%TD*%
D38*
%TO.C,R47*%
X85532200Y-94589600D03*
D39*
X86832200Y-94589600D03*
%TD*%
D26*
%TO.C,R33*%
X144805400Y-119522000D03*
D27*
X144805400Y-118222000D03*
%TD*%
D26*
%TO.C,R37*%
X152831800Y-119532400D03*
D27*
X152831800Y-118232400D03*
%TD*%
D25*
%TO.C,R18*%
X155194000Y-83415500D03*
X155194000Y-85240500D03*
%TD*%
D26*
%TO.C,R43*%
X149402800Y-109524800D03*
D27*
X149402800Y-108224800D03*
%TD*%
D25*
%TO.C,R19*%
X157226000Y-83417400D03*
X157226000Y-85242400D03*
%TD*%
D26*
%TO.C,R35*%
X148818600Y-119522000D03*
D27*
X148818600Y-118222000D03*
%TD*%
D29*
%TO.C,C35*%
X132943600Y-95519200D03*
X132943600Y-97419200D03*
%TD*%
D26*
%TO.C,R45*%
X155524200Y-109524800D03*
D27*
X155524200Y-108224800D03*
%TD*%
D34*
%TO.C,C31*%
X138064200Y-59385200D03*
X139964200Y-59385200D03*
%TD*%
D26*
%TO.C,R42*%
X145923000Y-109524800D03*
D27*
X145923000Y-108224800D03*
%TD*%
D26*
%TO.C,R46*%
X157530800Y-109524800D03*
D27*
X157530800Y-108224800D03*
%TD*%
D28*
%TO.C,C36*%
X138988800Y-77673200D03*
X137088800Y-77673200D03*
%TD*%
D36*
%TO.C,R48*%
X110337600Y-117334901D03*
D37*
X110337600Y-118634899D03*
%TD*%
D26*
%TO.C,R38*%
X154838400Y-119522000D03*
D27*
X154838400Y-118222000D03*
%TD*%
D28*
%TO.C,C37*%
X181061400Y-78663800D03*
X179161400Y-78663800D03*
%TD*%
D26*
%TO.C,R41*%
X140792200Y-109474000D03*
D27*
X140792200Y-108174000D03*
%TD*%
D28*
%TO.C,C26*%
X125806200Y-120319800D03*
X123906200Y-120319800D03*
%TD*%
D26*
%TO.C,R40*%
X138785600Y-109463600D03*
D27*
X138785600Y-108163600D03*
%TD*%
M02*
