M48
; DRILL file {KiCad 8.0.6} date 2025-06-27T07:10:50+0200
; FORMAT={-:-/ absolute / inch / decimal}
; #@! TF.CreationDate,2025-06-27T07:10:50+02:00
; #@! TF.GenerationSoftware,Kicad,Pcbnew,8.0.6
; #@! TF.FileFunction,Plated,1,2,PTH
FMAT,2
INCH
; #@! TA.AperFunction,Plated,PTH,ViaDrill
T1C0.0118
; #@! TA.AperFunction,Plated,PTH,ViaDrill
T2C0.0157
; #@! TA.AperFunction,Plated,PTH,ComponentDrill
T3C0.0236
; #@! TA.AperFunction,Plated,PTH,ComponentDrill
T4C0.0315
; #@! TA.AperFunction,Plated,PTH,ComponentDrill
T5C0.0374
; #@! TA.AperFunction,Plated,PTH,ComponentDrill
T6C0.0394
; #@! TA.AperFunction,Plated,PTH,ComponentDrill
T7C0.0906
; #@! TA.AperFunction,Plated,PTH,ComponentDrill
T8C0.1260
; #@! TA.AperFunction,Plated,PTH,ComponentDrill
T9C0.1693
%
G90
G05
T1
X2.922Y-3.402
X2.9495Y-3.7854
X2.956Y-4.3485
X2.958Y-4.38
X2.994Y-2.77
X3.0Y-3.14
X3.019Y-3.7429
X3.033Y-3.768
X3.0565Y-3.7357
X3.0619Y-3.8439
X3.092Y-3.377
X3.127Y-3.9482
X3.1339Y-4.5539
X3.1339Y-4.7389
X3.1739Y-4.3939
X3.189Y-4.1673
X3.2139Y-2.6189
X3.291Y-4.269
X3.2959Y-4.4932
X3.343Y-4.471
X3.391Y-3.443
X3.3939Y-2.9729
X3.424Y-2.547
X3.424Y-3.3211
X3.439Y-3.181
X3.458Y-3.09
X3.4939Y-3.6062
X3.4939Y-3.7039
X3.5039Y-4.4689
X3.5179Y-4.0119
X3.591Y-2.901
X3.6039Y-4.2939
X3.6043Y-2.6339
X3.607Y-3.292
X3.608Y-3.3705
X3.6398Y-3.7402
X3.651Y-4.823
X3.6715Y-4.4539
X3.6739Y-4.0239
X3.6877Y-4.4168
X3.6989Y-3.9089
X3.7134Y-3.714
X3.715Y-3.436
X3.718Y-2.936
X3.7461Y-3.8445
X3.748Y-3.712
X3.753Y-3.7719
X3.7972Y-4.561
X3.8Y-3.0005
X3.8169Y-2.3248
X3.8189Y-2.9291
X3.826Y-4.656
X3.8449Y-3.9651
X3.8512Y-4.4482
X3.8722Y-3.3182
X3.9179Y-2.3199
X3.9239Y-4.4739
X3.9749Y-2.9396
X3.992Y-3.32
X4.024Y-2.938
X4.0413Y-3.084
X4.05Y-4.817
X4.058Y-4.545
X4.0732Y-4.7851
X4.08Y-3.026
X4.1099Y-2.4379
X4.1099Y-4.1499
X4.1122Y-3.4488
X4.1201Y-2.7106
X4.1279Y-3.9659
X4.1339Y-3.7739
X4.134Y-3.861
X4.159Y-4.679
X4.1939Y-2.5378
X4.194Y-3.466
X4.204Y-3.03
X4.207Y-4.132
X4.224Y-2.9285
X4.2559Y-3.3519
X4.281Y-4.74
X4.296Y-3.711
X4.3119Y-2.4179
X4.318Y-4.4084
X4.321Y-2.382
X4.3307Y-3.8445
X4.334Y-4.532
X4.3386Y-3.9724
X4.3536Y-2.9182
X4.376Y-2.602
X4.3774Y-3.5256
X4.3839Y-3.3012
X4.3839Y-2.7879
X4.385Y-2.464
X4.3929Y-3.0529
X4.3961Y-3.2667
X4.4339Y-3.9719
X4.4429Y-3.7781
X4.4439Y-4.1189
X4.4508Y-3.817
X4.452Y-3.344
X4.4615Y-3.454
X4.4789Y-4.6789
X4.4882Y-3.815
X4.4889Y-2.4589
X4.4896Y-3.3724
X4.5039Y-3.0149
X4.5139Y-2.7539
X4.527Y-3.319
X4.5389Y-2.2812
X4.5436Y-4.7752
X4.5439Y-4.1134
X4.5449Y-2.8229
X4.5459Y-2.9069
X4.5472Y-4.0512
X4.5539Y-3.9637
X4.564Y-3.377
X4.5646Y-3.8061
X4.577Y-2.472
X4.585Y-2.355
X4.5939Y-3.4419
X4.596Y-4.894
X4.604Y-3.806
X4.622Y-4.4186
X4.6297Y-2.4964
X4.63Y-3.33
X4.631Y-2.44
X4.638Y-4.182
X4.656Y-4.4099
X4.6657Y-3.9636
X4.6728Y-2.4815
X4.6772Y-3.7126
X4.686Y-2.415
X4.6954Y-3.0043
X4.7119Y-2.7473
X4.7279Y-2.4804
X4.728Y-3.696
X4.742Y-3.967
X4.752Y-2.6
X4.764Y-2.746
X4.765Y-4.0
X4.768Y-2.7033
X4.774Y-3.754
X4.7858Y-3.696
X4.793Y-5.012
X4.7939Y-2.3599
X4.794Y-4.2029
X4.795Y-3.829
X4.797Y-4.312
X4.81Y-3.391
X4.828Y-2.7014
X4.859Y-3.93
X4.862Y-2.3736
X4.864Y-3.742
X4.8854Y-4.09
X4.892Y-2.954
X4.8939Y-4.9082
X4.8949Y-3.7864
X4.896Y-3.3197
X4.9054Y-4.1107
X4.9136Y-4.0832
X4.9139Y-2.3389
X4.9534Y-2.3525
X4.9539Y-3.7989
X4.9556Y-4.0394
X4.9702Y-3.9928
X4.972Y-4.629
X4.9764Y-2.6358
X4.983Y-2.952
X4.9935Y-2.7838
X4.9955Y-3.3633
X4.996Y-4.024
X5.0059Y-3.3901
X5.0139Y-4.5589
X5.015Y-4.097
X5.016Y-2.6625
X5.018Y-3.914
X5.02Y-2.36
X5.03Y-2.472
X5.032Y-4.329
X5.0329Y-3.3998
X5.034Y-3.3301
X5.0349Y-3.4285
X5.055Y-2.7061
X5.083Y-4.737
X5.0861Y-4.2676
X5.0889Y-2.7061
X5.0911Y-2.6161
X5.1049Y-2.3959
X5.106Y-3.0153
X5.108Y-4.126
X5.1099Y-2.4829
X5.116Y-4.2947
X5.1221Y-2.6165
X5.1239Y-3.7989
X5.1239Y-4.7762
X5.1287Y-4.3205
X5.1389Y-2.3765
X5.139Y-4.1745
X5.1513Y-4.0269
X5.1625Y-2.9319
X5.1637Y-4.313
X5.1657Y-4.3552
X5.1719Y-3.7984
X5.1749Y-2.6926
X5.178Y-2.752
X5.1939Y-4.3891
X5.2074Y-4.1344
X5.2315Y-2.6831
X5.2354Y-4.1409
X5.2434Y-4.2801
X5.2514Y-2.902
X5.2659Y-4.7484
X5.266Y-4.3
X5.2677Y-2.6107
X5.2719Y-4.0259
X5.2821Y-2.7372
X5.286Y-2.706
X5.2874Y-2.2638
X5.288Y-2.4
X5.2889Y-3.5379
X5.295Y-4.449
X5.2968Y-3.13
X5.3Y-3.222
X5.3004Y-3.3861
X5.3019Y-3.7139
X5.3051Y-3.8465
X5.3115Y-2.5855
X5.3239Y-2.8339
X5.331Y-2.4988
X5.3339Y-2.9969
X5.3425Y-4.2265
X5.3435Y-3.4258
X5.3469Y-2.9129
X5.3681Y-2.7452
X5.3789Y-4.6648
X5.3971Y-2.4055
X5.401Y-3.1593
X5.4035Y-2.7146
X5.411Y-3.229
X5.4143Y-2.5834
X5.4295Y-3.4383
X5.4295Y-3.467
X5.4371Y-3.8987
X5.443Y-2.396
X5.4567Y-2.6929
X5.4604Y-2.4415
X5.4622Y-4.2222
X5.4724Y-3.4429
X5.4803Y-2.6713
X5.4849Y-3.7118
X5.498Y-2.7835
X5.5Y-3.818
X5.5011Y-4.2126
X5.5079Y-3.4016
X5.5093Y-4.1323
X5.5201Y-3.352
X5.5296Y-4.1797
X5.546Y-3.755
X5.549Y-2.474
X5.5582Y-4.177
X5.5591Y-3.3051
X5.5709Y-2.6988
X5.5866Y-3.2146
X5.5868Y-4.1751
X5.5889Y-3.8152
X5.59Y-2.573
X5.5949Y-2.5024
X5.6122Y-2.4449
X5.6139Y-5.0439
X5.6154Y-4.1779
X5.6237Y-4.2683
X5.624Y-3.793
X5.638Y-4.6154
X5.643Y-2.718
X5.6437Y-3.3419
X5.6439Y-3.9839
X5.6542Y-4.1448
X5.6575Y-3.1555
X5.668Y-4.338
X5.6761Y-2.6459
X5.6775Y-4.6154
X5.6848Y-2.7582
X5.687Y-2.4626
X5.688Y-3.78
X5.7031Y-3.2113
X5.7062Y-4.6154
X5.7402Y-3.3642
X5.7402Y-3.437
X5.7476Y-4.0291
X5.7517Y-4.2242
X5.754Y-4.6154
X5.765Y-3.966
X5.791Y-3.928
X5.7928Y-3.8577
X5.794Y-4.288
X5.7967Y-2.5951
X5.8Y-4.222
X5.8012Y-3.2113
X5.805Y-4.6154
X5.8091Y-3.3701
X5.811Y-3.807
X5.813Y-3.162
X5.8189Y-2.7776
X5.8233Y-4.2407
X5.8307Y-3.2113
X5.8334Y-4.3348
X5.8357Y-4.0103
X5.8463Y-3.3723
X5.8543Y-2.7114
X5.8669Y-2.3675
X5.8799Y-3.7779
X5.883Y-4.009
X5.887Y-4.2166
X5.904Y-3.396
X5.9115Y-3.361
X5.9278Y-2.7042
X5.928Y-3.83
X5.9293Y-2.6552
X5.938Y-4.6154
X5.9502Y-3.0435
X5.9602Y-3.3402
X5.969Y-4.6154
X5.9728Y-3.5912
X5.976Y-3.875
X5.9777Y-3.3937
X5.9899Y-3.4919
X5.991Y-4.2281
X5.9939Y-2.3939
X5.9939Y-2.7605
X5.9941Y-2.6693
X5.9994Y-3.0434
X6.006Y-4.016
X6.007Y-3.763
X6.0103Y-3.8489
X6.016Y-4.3141
X6.0217Y-2.6299
X6.025Y-3.701
X6.0259Y-3.0545
X6.034Y-4.2179
X6.0365Y-3.8662
X6.0492Y-2.7026
X6.0537Y-3.7011
X6.0596Y-4.554
X6.094Y-4.12
X6.111Y-4.011
X6.12Y-4.219
X6.1311Y-3.0541
X6.1389Y-5.0239
X6.143Y-3.197
X6.1449Y-2.4679
X6.1509Y-2.9946
X6.153Y-4.6377
X6.177Y-4.011
X6.1901Y-3.0227
X6.1902Y-3.0514
X6.1919Y-2.7494
X6.1984Y-3.1012
X6.224Y-4.154
X6.2332Y-3.0363
X6.2585Y-4.0438
X6.2619Y-2.7494
X6.263Y-4.241
X6.2731Y-4.6594
X6.2818Y-4.001
X6.2899Y-3.4639
X6.2953Y-4.5449
X6.3058Y-4.7346
X6.3258Y-4.6871
X6.334Y-3.09
X6.3379Y-3.4599
X6.3439Y-2.7439
X6.3445Y-3.0205
X6.3544Y-4.4183
X6.373Y-4.686
X6.3742Y-4.5465
X6.376Y-4.722
X6.3839Y-4.0339
X6.3878Y-4.4961
X6.3914Y-2.4603
X6.395Y-3.096
X6.4019Y-5.0459
X6.4075Y-3.3957
X6.4268Y-3.2
X6.4429Y-3.8819
X6.453Y-4.219
X6.4599Y-2.7179
X6.4606Y-2.4921
X6.461Y-4.621
X6.509Y-3.0711
X6.5138Y-2.3661
X6.5219Y-4.3499
X6.5281Y-3.2673
X6.5339Y-4.4689
X6.5375Y-3.2239
X6.5379Y-2.5259
X6.539Y-3.883
X6.5512Y-3.3406
X6.5618Y-3.2393
X6.5668Y-4.2439
X6.5675Y-3.1958
X6.5696Y-4.1609
X6.5772Y-3.6864
X6.583Y-3.075
X6.5848Y-3.7645
X6.6043Y-2.5787
X6.6161Y-4.4528
X6.6168Y-4.6696
X6.6172Y-3.6512
X6.6175Y-4.7215
X6.6185Y-3.3769
X6.622Y-2.3346
X6.6302Y-2.5434
X6.638Y-4.7727
X6.6475Y-4.6898
X6.6597Y-4.7158
X6.6889Y-4.2389
X6.689Y-3.75
X6.691Y-4.615
X6.6924Y-4.3256
X6.6939Y-2.5679
X6.6939Y-3.6539
X6.6941Y-4.6487
X6.6948Y-3.8502
X6.696Y-4.06
X6.703Y-3.165
X6.7039Y-4.2698
X6.7067Y-2.3445
X6.7119Y-4.8244
X6.7165Y-4.564
X6.7189Y-4.3639
X6.7213Y-4.7484
X6.7273Y-3.7483
X6.748Y-4.333
X6.755Y-4.2785
X6.7821Y-2.954
X6.803Y-4.977
X6.8107Y-2.9519
X6.8241Y-3.5889
X6.8269Y-3.9529
X6.8293Y-3.8906
X6.8336Y-2.9692
X6.838Y-4.016
X6.8424Y-3.9824
X6.8439Y-4.2689
X6.8439Y-4.4939
X6.8489Y-4.2339
X6.849Y-4.2976
X6.8533Y-4.4227
X6.8539Y-2.9895
X6.8592Y-4.3245
X6.87Y-4.3528
X6.8719Y-4.0119
X6.9219Y-5.0339
X6.9439Y-3.9889
X6.9562Y-4.9247
X6.963Y-2.859
X6.9643Y-2.957
X6.9862Y-2.7756
X6.9939Y-4.1939
X7.0047Y-3.2734
X7.0047Y-3.1183
X7.01Y-3.055
X7.0199Y-3.4729
X7.0364Y-3.1945
X7.0439Y-3.9939
X7.0689Y-3.5737
X7.119Y-4.9183
X7.1339Y-3.4379
X7.1458Y-4.908
X7.1679Y-4.5759
X7.173Y-3.994
X7.1744Y-4.9053
X7.2022Y-4.8975
X7.2199Y-4.3419
X7.2461Y-3.7441
X7.2499Y-4.878
X7.25Y-4.172
X7.2702Y-4.8577
X7.3152Y-4.8145
X7.3428Y-4.538
X7.3433Y-4.4806
X7.3438Y-4.5093
X7.3539Y-4.4539
X7.3539Y-4.7889
X7.364Y-4.8339
X7.3734Y-3.338
X7.3734Y-3.675
X7.3774Y-3.2189
X7.378Y-3.8327
X7.3829Y-3.1019
X7.3939Y-4.4539
X7.4055Y-3.2008
X7.442Y-3.132
X7.448Y-4.233
X7.5117Y-3.2057
X7.5149Y-3.3219
X7.523Y-3.066
X7.5249Y-3.8549
X7.532Y-5.057
X7.5339Y-4.3519
X7.535Y-4.941
X7.5359Y-4.2239
X7.5512Y-3.8307
X7.5653Y-3.8839
X7.57Y-3.915
X7.6419Y-4.3459
X7.6579Y-4.0069
X7.6639Y-3.4589
X7.75Y-3.3386
X7.752Y-3.5217
X7.7939Y-4.5439
X7.8045Y-2.4455
X7.83Y-4.933
X7.8519Y-4.3599
X7.864Y-2.741
X7.895Y-4.762
X7.9825Y-4.9
X8.0037Y-4.4337
X8.024Y-3.688
X8.0399Y-4.3139
X8.238Y-3.14
X8.416Y-3.6
T2
X6.9731Y-2.8107
X7.0276Y-2.6654
X7.5315Y-2.622
X7.66Y-3.93
X7.7402Y-2.8976
X7.8235Y-3.1004
X7.98Y-3.23
X8.089Y-3.214
X8.116Y-3.042
X8.1778Y-2.6772
X8.365Y-3.233
X8.45Y-3.1
X8.464Y-3.004
X8.475Y-3.225
T4
X2.9098Y-3.2396
X2.9098Y-3.5396
X3.0098Y-3.2396
X3.0098Y-3.5396
X3.0439Y-3.6439
X3.0439Y-4.2439
X3.0439Y-4.3439
X3.0439Y-4.9439
X3.1098Y-3.2396
X3.1098Y-3.5396
X3.1439Y-3.6439
X3.1439Y-4.2439
X3.1439Y-4.3439
X3.1439Y-4.9439
X3.2098Y-3.2396
X3.2098Y-3.5396
X3.2439Y-3.6439
X3.2439Y-4.2439
X3.2439Y-4.3439
X3.2439Y-4.9439
X3.3098Y-3.2396
X3.3098Y-3.5396
X3.3439Y-3.6439
X3.3439Y-4.2439
X3.3439Y-4.3439
X3.3439Y-4.9439
X3.4098Y-3.2396
X3.4098Y-3.5396
X3.4439Y-3.6439
X3.4439Y-4.2439
X3.4439Y-4.3439
X3.4439Y-4.9439
X3.5098Y-3.2396
X3.5098Y-3.5396
X3.5439Y-3.6439
X3.5439Y-4.2439
X3.5439Y-4.3439
X3.5439Y-4.9439
X3.5945Y-2.8435
X3.5945Y-3.1435
X3.6439Y-3.6439
X3.6439Y-4.2439
X3.6439Y-4.3439
X3.6439Y-4.9439
X3.6937Y-3.2435
X3.6937Y-3.5435
X3.6945Y-2.8435
X3.6945Y-3.1435
X3.7439Y-3.6439
X3.7439Y-4.2439
X3.7439Y-4.3439
X3.7439Y-4.9439
X3.7937Y-3.2435
X3.7937Y-3.5435
X3.7945Y-2.8435
X3.7945Y-3.1435
X3.8439Y-3.6439
X3.8439Y-4.2439
X3.8439Y-4.3439
X3.8439Y-4.9439
X3.8937Y-3.2435
X3.8937Y-3.5435
X3.8945Y-2.8435
X3.8945Y-3.1435
X3.9439Y-3.6439
X3.9439Y-4.2439
X3.9439Y-4.3439
X3.9439Y-4.9439
X3.9937Y-3.2435
X3.9937Y-3.5435
X3.9945Y-2.8435
X3.9945Y-3.1435
X4.0439Y-3.6439
X4.0439Y-4.2439
X4.0439Y-4.3439
X4.0439Y-4.9439
X4.0937Y-3.2435
X4.0937Y-3.5435
X4.0945Y-2.8435
X4.0945Y-3.1435
X4.1439Y-3.6439
X4.1439Y-4.2439
X4.1439Y-4.3439
X4.1439Y-4.9439
X4.1937Y-3.2435
X4.1937Y-3.5435
X4.1945Y-2.8435
X4.1945Y-3.1435
X4.2439Y-3.6439
X4.2439Y-4.2439
X4.2439Y-4.3439
X4.2439Y-4.9439
X4.2937Y-3.2435
X4.2937Y-3.5435
X4.2939Y-2.2439
X4.2939Y-2.5439
X4.2945Y-2.8435
X4.2945Y-3.1435
X4.3439Y-3.6439
X4.3439Y-4.2439
X4.3439Y-4.3439
X4.3439Y-4.9439
X4.3939Y-2.2439
X4.3939Y-2.5439
X4.4439Y-3.6439
X4.4439Y-4.2439
X4.4439Y-4.3439
X4.4439Y-4.9439
X4.4939Y-2.2439
X4.4939Y-2.5439
X4.4945Y-2.8435
X4.4945Y-3.1435
X4.4945Y-3.2435
X4.4945Y-3.5435
X4.5439Y-3.6439
X4.5439Y-4.2439
X4.5439Y-4.3439
X4.5439Y-4.9439
X4.5939Y-2.2439
X4.5939Y-2.5439
X4.5945Y-2.8435
X4.5945Y-3.1435
X4.5945Y-3.2435
X4.5945Y-3.5435
X4.6439Y-3.6439
X4.6439Y-4.2439
X4.6439Y-4.3439
X4.6439Y-4.9439
X4.6939Y-2.2439
X4.6939Y-2.5439
X4.6945Y-2.8435
X4.6945Y-3.1435
X4.6945Y-3.2435
X4.6945Y-3.5435
X4.7439Y-3.6439
X4.7439Y-4.2439
X4.7439Y-4.3439
X4.7439Y-4.9439
X4.7939Y-2.2439
X4.7939Y-2.5439
X4.7945Y-2.8435
X4.7945Y-3.1435
X4.7945Y-3.2435
X4.7945Y-3.5435
X4.8439Y-3.6439
X4.8439Y-4.2439
X4.8439Y-4.3439
X4.8439Y-4.9439
X4.8939Y-2.2439
X4.8939Y-2.5439
X4.8945Y-2.8435
X4.8945Y-3.1435
X4.8945Y-3.2435
X4.8945Y-3.5435
X4.9439Y-3.6439
X4.9439Y-4.2439
X4.9439Y-4.3439
X4.9439Y-4.9439
X4.9939Y-2.2439
X4.9939Y-2.5439
X4.9945Y-2.8435
X4.9945Y-3.1435
X4.9945Y-3.2435
X4.9945Y-3.5435
X5.0937Y-3.6435
X5.0937Y-3.9435
X5.0939Y-2.2439
X5.0939Y-2.5439
X5.0945Y-2.8435
X5.0945Y-3.1435
X5.0945Y-3.2435
X5.0945Y-3.5435
X5.1937Y-3.6435
X5.1937Y-3.9435
X5.1939Y-2.2439
X5.1939Y-2.5439
X5.1945Y-2.8435
X5.1945Y-3.1435
X5.1945Y-3.2435
X5.1945Y-3.5435
X5.2937Y-3.6435
X5.2937Y-3.9435
X5.3439Y-4.0935
X5.3439Y-4.3935
X5.3439Y-4.4939
X5.3439Y-4.7939
X5.3937Y-3.6435
X5.3937Y-3.9435
X5.3943Y-2.2441
X5.3943Y-2.8441
X5.3943Y-2.9441
X5.3943Y-3.5441
X5.4439Y-4.0935
X5.4439Y-4.3935
X5.4439Y-4.4939
X5.4439Y-4.7939
X5.4937Y-3.6435
X5.4937Y-3.9435
X5.4943Y-2.2441
X5.4943Y-2.8441
X5.4943Y-2.9441
X5.4943Y-3.5441
X5.5439Y-4.0935
X5.5439Y-4.3935
X5.5439Y-4.4939
X5.5439Y-4.7939
X5.5937Y-3.6435
X5.5937Y-3.9435
X5.5943Y-2.2441
X5.5943Y-2.8441
X5.5943Y-2.9441
X5.5943Y-3.5441
X5.6439Y-4.0935
X5.6439Y-4.3935
X5.6439Y-4.4939
X5.6439Y-4.7939
X5.6937Y-3.6435
X5.6937Y-3.9435
X5.6943Y-2.2441
X5.6943Y-2.8441
X5.6943Y-2.9441
X5.6943Y-3.5441
X5.7439Y-4.0935
X5.7439Y-4.3935
X5.7439Y-4.4939
X5.7439Y-4.7939
X5.7943Y-2.2441
X5.7943Y-2.8441
X5.7943Y-2.9441
X5.7943Y-3.5441
X5.8439Y-4.0935
X5.8439Y-4.3935
X5.8439Y-4.4939
X5.8439Y-4.7939
X5.8937Y-3.6435
X5.8937Y-3.9435
X5.8943Y-2.2441
X5.8943Y-2.8441
X5.8943Y-2.9441
X5.8943Y-3.5441
X5.9439Y-4.0935
X5.9439Y-4.3935
X5.9439Y-4.4939
X5.9439Y-4.7939
X5.9937Y-3.6435
X5.9937Y-3.9435
X5.9943Y-2.2441
X5.9943Y-2.8441
X5.9943Y-2.9441
X5.9943Y-3.5441
X6.0439Y-4.0935
X6.0439Y-4.3935
X6.0439Y-4.4939
X6.0439Y-4.7939
X6.0937Y-3.6435
X6.0937Y-3.9435
X6.0943Y-2.2441
X6.0943Y-2.8441
X6.0943Y-2.9441
X6.0943Y-3.5441
X6.1439Y-4.0935
X6.1439Y-4.3935
X6.1439Y-4.4939
X6.1439Y-4.7939
X6.1937Y-3.6435
X6.1937Y-3.9435
X6.1943Y-2.2441
X6.1943Y-2.8441
X6.1943Y-2.9441
X6.1943Y-3.5441
X6.2439Y-4.0935
X6.2439Y-4.3935
X6.2439Y-4.4939
X6.2439Y-4.7939
X6.2937Y-3.6435
X6.2937Y-3.9435
X6.2943Y-2.2441
X6.2943Y-2.8441
X6.2943Y-2.9441
X6.2943Y-3.5441
X6.3937Y-3.6435
X6.3937Y-3.9435
X6.3943Y-2.2441
X6.3943Y-2.8441
X6.3943Y-2.9441
X6.3943Y-3.5441
X6.4937Y-3.6435
X6.4937Y-3.9435
X6.4943Y-2.2441
X6.4943Y-2.8441
X6.4943Y-2.9441
X6.4943Y-3.5441
X6.5943Y-2.2441
X6.5943Y-2.8441
X6.5943Y-2.9441
X6.5943Y-3.5441
X6.6943Y-2.2441
X6.6943Y-2.8441
X6.6943Y-2.9441
X6.6943Y-3.5441
X6.8943Y-3.0945
X6.8943Y-3.1945
X6.8943Y-3.2945
X6.8943Y-3.3945
X6.8943Y-3.4945
X6.8943Y-3.5945
X6.8943Y-3.6945
X6.8943Y-3.7945
X7.1943Y-3.0945
X7.1943Y-3.1945
X7.1943Y-3.2945
X7.1943Y-3.3945
X7.1943Y-3.4945
X7.1943Y-3.5945
X7.1943Y-3.6945
X7.1943Y-3.7945
X7.2943Y-3.0937
X7.2943Y-3.1937
X7.2943Y-3.2937
X7.2943Y-3.3937
X7.2943Y-3.4937
X7.2943Y-3.5937
X7.2943Y-3.6937
X7.5943Y-3.0937
X7.5943Y-3.1937
X7.5943Y-3.2937
X7.5943Y-3.3937
X7.5943Y-3.4937
X7.5943Y-3.5937
X7.5943Y-3.6937
X7.7441Y-3.4232
X7.7441Y-3.6154
X7.8904Y-3.0898
X7.8904Y-3.1898
X7.8904Y-3.2898
X7.8904Y-3.3898
X7.8904Y-3.4898
X7.8904Y-3.5898
X7.8904Y-3.6898
X8.1904Y-3.0898
X8.1904Y-3.1898
X8.1904Y-3.2898
X8.1904Y-3.3898
X8.1904Y-3.4898
X8.1904Y-3.5898
X8.1904Y-3.6898
X8.29Y-3.09
X8.29Y-3.19
X8.29Y-3.29
X8.29Y-3.39
X8.29Y-3.49
X8.29Y-3.59
X8.29Y-3.69
X8.29Y-3.79
X8.59Y-3.09
X8.59Y-3.19
X8.59Y-3.29
X8.59Y-3.39
X8.59Y-3.49
X8.59Y-3.59
X8.59Y-3.69
X8.59Y-3.79
T5
X3.35Y-2.65
X3.35Y-2.7484
X3.35Y-2.8272
X3.35Y-2.9256
T6
X3.0439Y-5.0939
X3.1439Y-5.0939
X3.2439Y-5.0939
X3.292Y-2.2442
X3.292Y-2.3442
X3.3439Y-5.0939
X3.3939Y-2.2439
X3.4439Y-5.0939
X3.4939Y-2.2439
X3.5439Y-5.0939
X3.5939Y-2.2439
X3.6439Y-5.0939
X3.6939Y-2.2439
X3.7439Y-5.0939
X3.7939Y-2.2439
X3.8439Y-5.0939
X3.8939Y-2.2439
X3.9439Y-5.0939
X3.9939Y-2.2439
X4.0439Y-5.0939
X4.0939Y-2.2439
X4.1439Y-5.0939
X4.2439Y-5.0939
X4.3439Y-5.0939
X4.4439Y-5.0939
X4.5439Y-5.0939
X4.6439Y-5.0939
X4.7439Y-5.0939
X4.8439Y-5.0939
X4.9439Y-5.0939
X5.0439Y-4.9939
X5.0439Y-5.0939
X5.1439Y-4.9939
X5.1439Y-5.0939
X5.2439Y-4.9939
X5.2439Y-5.0939
X5.3439Y-4.9939
X5.3439Y-5.0939
X5.4439Y-4.9939
X5.4439Y-5.0939
X5.5439Y-4.9939
X5.5439Y-5.0939
X6.3441Y-4.9941
X6.3441Y-5.0941
X6.4441Y-4.9941
X6.4441Y-5.0941
X6.5441Y-4.9941
X6.5441Y-5.0941
X6.6441Y-4.9941
X6.6441Y-5.0941
X6.7441Y-4.9941
X6.7441Y-5.0941
X6.8439Y-4.0939
X6.8439Y-4.6939
X6.9094Y-2.5551
X6.9439Y-4.0939
X6.9439Y-4.6939
X7.0094Y-2.5551
X7.0439Y-4.0939
X7.0439Y-4.6939
X7.1439Y-4.0939
X7.1439Y-4.6939
X7.1443Y-4.9939
X7.1443Y-5.0939
X7.2439Y-4.0939
X7.2439Y-4.6939
X7.2443Y-4.9939
X7.2443Y-5.0939
X7.2939Y-2.9439
X7.3439Y-4.0939
X7.3439Y-4.6939
X7.3443Y-4.9939
X7.3443Y-5.0939
X7.3939Y-2.9439
X7.4439Y-4.0939
X7.4439Y-4.6939
X7.4443Y-4.9939
X7.4443Y-5.0939
X7.4939Y-2.9439
X7.5439Y-4.0939
X7.5439Y-4.6939
X7.5939Y-2.9439
X7.6187Y-3.8289
X7.6439Y-4.0939
X7.6439Y-4.6939
X7.6439Y-4.9939
X7.6439Y-5.0939
X7.6736Y-2.6024
X7.6939Y-2.9439
X7.7187Y-2.5245
X7.7187Y-2.6804
X7.7187Y-3.8289
X7.7439Y-4.0939
X7.7439Y-4.6939
X7.7439Y-4.9939
X7.7439Y-5.0939
X7.7638Y-2.6024
X7.7939Y-2.9439
X7.8089Y-2.5245
X7.8089Y-2.6804
X7.8439Y-4.0939
X7.8439Y-4.6939
X7.8439Y-4.9939
X7.8439Y-5.0939
X7.8539Y-2.6024
X7.8939Y-2.9439
X7.899Y-2.5245
X7.899Y-2.6804
X7.9439Y-4.0939
X7.9439Y-4.6939
X7.9439Y-4.9939
X7.9439Y-5.0939
X7.9441Y-2.6024
X7.9892Y-2.5245
X7.9892Y-2.6804
X7.9939Y-2.9439
X8.0343Y-2.6024
X8.0439Y-4.0939
X8.0439Y-4.6939
X8.0439Y-4.9939
X8.0439Y-5.0939
X8.0793Y-2.5245
X8.0793Y-2.6804
X8.0939Y-2.9439
X8.1439Y-4.0939
X8.1439Y-4.6939
X8.1439Y-4.9939
X8.1439Y-5.0939
X8.1939Y-2.9439
X8.2439Y-4.0939
X8.2439Y-4.6939
X8.2439Y-4.9939
X8.2439Y-5.0939
X8.2939Y-2.9439
X8.3439Y-4.0939
X8.3439Y-4.6939
X8.3439Y-4.9939
X8.3439Y-5.0939
X8.3939Y-2.9439
X8.69Y-2.75
X8.69Y-2.85
X8.6939Y-3.1939
X8.6939Y-3.2939
X8.6939Y-3.3939
X8.6939Y-3.4939
X8.6939Y-3.5939
T7
X3.2433Y-2.5291
X3.2433Y-3.0465
T8
X7.3965Y-2.6245
X8.3807Y-2.6245
T9
X3.0139Y-2.3639
X4.6939Y-4.6289
X8.5739Y-2.3639
X8.5739Y-4.9739
T3
G00X6.7984Y-2.2711
M15
G01X6.7984Y-2.2474
M16
G05
G00X6.7984Y-2.4455
M15
G01X6.7984Y-2.4022
M16
G05
G00X7.1386Y-2.2711
M15
G01X7.1386Y-2.2474
M16
G05
G00X7.1386Y-2.4455
M15
G01X7.1386Y-2.4022
M16
G05
M30
