%TF.GenerationSoftware,KiCad,Pcbnew,8.0.6*%
%TF.CreationDate,2025-06-27T07:10:50+02:00*%
%TF.ProjectId,6502,36353032-2e6b-4696-9361-645f70636258,1*%
%TF.SameCoordinates,Original*%
%TF.FileFunction,Soldermask,Top*%
%TF.FilePolarity,Negative*%
%FSLAX46Y46*%
G04 Gerber Fmt 4.6, Leading zero omitted, Abs format (unit mm)*
G04 Created by KiCad (PCBNEW 8.0.6) date 2025-06-27 07:10:50*
%MOMM*%
%LPD*%
G01*
G04 APERTURE LIST*
G04 Aperture macros list*
%AMRoundRect*
0 Rectangle with rounded corners*
0 $1 Rounding radius*
0 $2 $3 $4 $5 $6 $7 $8 $9 X,Y pos of 4 corners*
0 Add a 4 corners polygon primitive as box body*
4,1,4,$2,$3,$4,$5,$6,$7,$8,$9,$2,$3,0*
0 Add four circle primitives for the rounded corners*
1,1,$1+$1,$2,$3*
1,1,$1+$1,$4,$5*
1,1,$1+$1,$6,$7*
1,1,$1+$1,$8,$9*
0 Add four rect primitives between the rounded corners*
20,1,$1+$1,$2,$3,$4,$5,0*
20,1,$1+$1,$4,$5,$6,$7,0*
20,1,$1+$1,$6,$7,$8,$9,0*
20,1,$1+$1,$8,$9,$2,$3,0*%
%AMFreePoly0*
4,1,19,0.500000,-0.750000,0.000000,-0.750000,0.000000,-0.744911,-0.071157,-0.744911,-0.207708,-0.704816,-0.327430,-0.627875,-0.420627,-0.520320,-0.479746,-0.390866,-0.500000,-0.250000,-0.500000,0.250000,-0.479746,0.390866,-0.420627,0.520320,-0.327430,0.627875,-0.207708,0.704816,-0.071157,0.744911,0.000000,0.744911,0.000000,0.750000,0.500000,0.750000,0.500000,-0.750000,0.500000,-0.750000,
$1*%
%AMFreePoly1*
4,1,19,0.000000,0.744911,0.071157,0.744911,0.207708,0.704816,0.327430,0.627875,0.420627,0.520320,0.479746,0.390866,0.500000,0.250000,0.500000,-0.250000,0.479746,-0.390866,0.420627,-0.520320,0.327430,-0.627875,0.207708,-0.704816,0.071157,-0.744911,0.000000,-0.744911,0.000000,-0.750000,-0.500000,-0.750000,-0.500000,0.750000,0.000000,0.750000,0.000000,0.744911,0.000000,0.744911,
$1*%
G04 Aperture macros list end*
%ADD10RoundRect,0.218750X-0.256250X0.218750X-0.256250X-0.218750X0.256250X-0.218750X0.256250X0.218750X0*%
%ADD11RoundRect,0.218750X0.256250X-0.218750X0.256250X0.218750X-0.256250X0.218750X-0.256250X-0.218750X0*%
%ADD12R,1.700000X1.700000*%
%ADD13O,1.700000X1.700000*%
%ADD14RoundRect,0.243750X0.456250X-0.243750X0.456250X0.243750X-0.456250X0.243750X-0.456250X-0.243750X0*%
%ADD15R,1.700000X1.000000*%
%ADD16R,1.600000X1.600000*%
%ADD17O,1.600000X1.600000*%
%ADD18RoundRect,0.243750X-0.456250X0.243750X-0.456250X-0.243750X0.456250X-0.243750X0.456250X0.243750X0*%
%ADD19RoundRect,0.218750X-0.218750X-0.256250X0.218750X-0.256250X0.218750X0.256250X-0.218750X0.256250X0*%
%ADD20R,1.060000X0.650000*%
%ADD21RoundRect,0.218750X0.218750X0.256250X-0.218750X0.256250X-0.218750X-0.256250X0.218750X-0.256250X0*%
%ADD22R,1.500000X1.600000*%
%ADD23C,1.600000*%
%ADD24C,3.000000*%
%ADD25RoundRect,0.250000X0.450000X-0.262500X0.450000X0.262500X-0.450000X0.262500X-0.450000X-0.262500X0*%
%ADD26R,1.440000X2.000000*%
%ADD27O,1.440000X2.000000*%
%ADD28RoundRect,0.250000X0.475000X-0.250000X0.475000X0.250000X-0.475000X0.250000X-0.475000X-0.250000X0*%
%ADD29C,1.500000*%
%ADD30RoundRect,0.243750X-0.243750X-0.456250X0.243750X-0.456250X0.243750X0.456250X-0.243750X0.456250X0*%
%ADD31RoundRect,0.250000X1.500000X0.550000X-1.500000X0.550000X-1.500000X-0.550000X1.500000X-0.550000X0*%
%ADD32C,0.650000*%
%ADD33RoundRect,0.150000X0.150000X0.500000X-0.150000X0.500000X-0.150000X-0.500000X0.150000X-0.500000X0*%
%ADD34RoundRect,0.075000X0.075000X0.575000X-0.075000X0.575000X-0.075000X-0.575000X0.075000X-0.575000X0*%
%ADD35O,1.000000X2.100000*%
%ADD36O,1.000000X1.600000*%
%ADD37RoundRect,0.243750X0.243750X0.456250X-0.243750X0.456250X-0.243750X-0.456250X0.243750X-0.456250X0*%
%ADD38C,4.000000*%
%ADD39RoundRect,0.250000X-0.450000X0.262500X-0.450000X-0.262500X0.450000X-0.262500X0.450000X0.262500X0*%
%ADD40R,1.400000X1.200000*%
%ADD41FreePoly0,180.000000*%
%ADD42FreePoly1,180.000000*%
%ADD43C,7.000000*%
%ADD44RoundRect,0.225000X-0.225000X-0.250000X0.225000X-0.250000X0.225000X0.250000X-0.225000X0.250000X0*%
%ADD45RoundRect,0.250000X-0.475000X0.250000X-0.475000X-0.250000X0.475000X-0.250000X0.475000X0.250000X0*%
%ADD46RoundRect,0.225000X0.250000X-0.225000X0.250000X0.225000X-0.250000X0.225000X-0.250000X-0.225000X0*%
G04 APERTURE END LIST*
D10*
%TO.C,C3*%
X88898323Y-75131523D03*
X88898323Y-76706523D03*
%TD*%
D11*
%TO.C,C7*%
X207264000Y-97866300D03*
X207264000Y-96291300D03*
%TD*%
D10*
%TO.C,C9*%
X105255923Y-63345923D03*
X105255923Y-64920923D03*
%TD*%
D12*
%TO.C,J4*%
X123035923Y-129385923D03*
D13*
X125575923Y-129385923D03*
%TD*%
D12*
%TO.C,J5*%
X193515923Y-97254923D03*
D13*
X196055923Y-97254923D03*
%TD*%
D14*
%TO.C,R2*%
X108500000Y-100037500D03*
X108500000Y-98162500D03*
%TD*%
D15*
%TO.C,SW1*%
X150315923Y-129507923D03*
X144015923Y-129507923D03*
X150315923Y-125707923D03*
X144015923Y-125707923D03*
%TD*%
D16*
%TO.C,U10*%
X135735923Y-121765923D03*
D17*
X138275923Y-121765923D03*
X140815923Y-121765923D03*
X143355923Y-121765923D03*
X145895923Y-121765923D03*
X148435923Y-121765923D03*
X150975923Y-121765923D03*
X153515923Y-121765923D03*
X156055923Y-121765923D03*
X158595923Y-121765923D03*
X158595923Y-114145923D03*
X156055923Y-114145923D03*
X153515923Y-114145923D03*
X150975923Y-114145923D03*
X148435923Y-114145923D03*
X145895923Y-114145923D03*
X143355923Y-114145923D03*
X140815923Y-114145923D03*
X138275923Y-114145923D03*
X135735923Y-114145923D03*
%TD*%
D16*
%TO.C,U11*%
X135735923Y-111595923D03*
D17*
X138275923Y-111595923D03*
X140815923Y-111595923D03*
X143355923Y-111595923D03*
X145895923Y-111595923D03*
X148435923Y-111595923D03*
X150975923Y-111595923D03*
X153515923Y-111595923D03*
X156055923Y-111595923D03*
X158595923Y-111595923D03*
X158595923Y-103975923D03*
X156055923Y-103975923D03*
X153515923Y-103975923D03*
X150975923Y-103975923D03*
X148435923Y-103975923D03*
X145895923Y-103975923D03*
X143355923Y-103975923D03*
X140815923Y-103975923D03*
X138275923Y-103975923D03*
X135735923Y-103975923D03*
%TD*%
D16*
%TO.C,U18*%
X137015923Y-72240923D03*
D17*
X139555923Y-72240923D03*
X142095923Y-72240923D03*
X144635923Y-72240923D03*
X147175923Y-72240923D03*
X149715923Y-72240923D03*
X152255923Y-72240923D03*
X154795923Y-72240923D03*
X157335923Y-72240923D03*
X159875923Y-72240923D03*
X162415923Y-72240923D03*
X164955923Y-72240923D03*
X167495923Y-72240923D03*
X170035923Y-72240923D03*
X170035923Y-57000923D03*
X167495923Y-57000923D03*
X164955923Y-57000923D03*
X162415923Y-57000923D03*
X159875923Y-57000923D03*
X157335923Y-57000923D03*
X154795923Y-57000923D03*
X152255923Y-57000923D03*
X149715923Y-57000923D03*
X147175923Y-57000923D03*
X144635923Y-57000923D03*
X142095923Y-57000923D03*
X139555923Y-57000923D03*
X137015923Y-57000923D03*
%TD*%
D16*
%TO.C,U3*%
X77315923Y-125575923D03*
D17*
X79855923Y-125575923D03*
X82395923Y-125575923D03*
X84935923Y-125575923D03*
X87475923Y-125575923D03*
X90015923Y-125575923D03*
X92555923Y-125575923D03*
X95095923Y-125575923D03*
X97635923Y-125575923D03*
X100175923Y-125575923D03*
X102715923Y-125575923D03*
X105255923Y-125575923D03*
X107795923Y-125575923D03*
X110335923Y-125575923D03*
X112875923Y-125575923D03*
X115415923Y-125575923D03*
X117955923Y-125575923D03*
X120495923Y-125575923D03*
X123035923Y-125575923D03*
X125575923Y-125575923D03*
X125575923Y-110335923D03*
X123035923Y-110335923D03*
X120495923Y-110335923D03*
X117955923Y-110335923D03*
X115415923Y-110335923D03*
X112875923Y-110335923D03*
X110335923Y-110335923D03*
X107795923Y-110335923D03*
X105255923Y-110335923D03*
X102715923Y-110335923D03*
X100175923Y-110335923D03*
X97635923Y-110335923D03*
X95095923Y-110335923D03*
X92555923Y-110335923D03*
X90015923Y-110335923D03*
X87475923Y-110335923D03*
X84935923Y-110335923D03*
X82395923Y-110335923D03*
X79855923Y-110335923D03*
X77315923Y-110335923D03*
%TD*%
D12*
%TO.C,J3*%
X117955923Y-129385923D03*
D13*
X120495923Y-129385923D03*
%TD*%
D16*
%TO.C,U2*%
X77315923Y-107795923D03*
D17*
X79855923Y-107795923D03*
X82395923Y-107795923D03*
X84935923Y-107795923D03*
X87475923Y-107795923D03*
X90015923Y-107795923D03*
X92555923Y-107795923D03*
X95095923Y-107795923D03*
X97635923Y-107795923D03*
X100175923Y-107795923D03*
X102715923Y-107795923D03*
X105255923Y-107795923D03*
X107795923Y-107795923D03*
X110335923Y-107795923D03*
X112875923Y-107795923D03*
X115415923Y-107795923D03*
X117955923Y-107795923D03*
X120495923Y-107795923D03*
X123035923Y-107795923D03*
X125575923Y-107795923D03*
X125575923Y-92555923D03*
X123035923Y-92555923D03*
X120495923Y-92555923D03*
X117955923Y-92555923D03*
X115415923Y-92555923D03*
X112875923Y-92555923D03*
X110335923Y-92555923D03*
X107795923Y-92555923D03*
X105255923Y-92555923D03*
X102715923Y-92555923D03*
X100175923Y-92555923D03*
X97635923Y-92555923D03*
X95095923Y-92555923D03*
X92555923Y-92555923D03*
X90015923Y-92555923D03*
X87475923Y-92555923D03*
X84935923Y-92555923D03*
X82395923Y-92555923D03*
X79855923Y-92555923D03*
X77315923Y-92555923D03*
%TD*%
D18*
%TO.C,R4*%
X74521923Y-98778923D03*
X74521923Y-100653923D03*
%TD*%
D14*
%TO.C,R3*%
X74648923Y-105050423D03*
X74648923Y-103175423D03*
%TD*%
%TO.C,R1*%
X74521923Y-94128423D03*
X74521923Y-92253423D03*
%TD*%
D11*
%TO.C,C10*%
X74775923Y-97305923D03*
X74775923Y-95730923D03*
%TD*%
D16*
%TO.C,U16*%
X137015923Y-90020923D03*
D17*
X139555923Y-90020923D03*
X142095923Y-90020923D03*
X144635923Y-90020923D03*
X147175923Y-90020923D03*
X149715923Y-90020923D03*
X152255923Y-90020923D03*
X154795923Y-90020923D03*
X157335923Y-90020923D03*
X159875923Y-90020923D03*
X162415923Y-90020923D03*
X164955923Y-90020923D03*
X167495923Y-90020923D03*
X170035923Y-90020923D03*
X170035923Y-74780923D03*
X167495923Y-74780923D03*
X164955923Y-74780923D03*
X162415923Y-74780923D03*
X159875923Y-74780923D03*
X157335923Y-74780923D03*
X154795923Y-74780923D03*
X152255923Y-74780923D03*
X149715923Y-74780923D03*
X147175923Y-74780923D03*
X144635923Y-74780923D03*
X142095923Y-74780923D03*
X139555923Y-74780923D03*
X137015923Y-74780923D03*
%TD*%
D19*
%TO.C,C6*%
X117168423Y-67155923D03*
X118743423Y-67155923D03*
%TD*%
D16*
%TO.C,U4*%
X109065923Y-64615923D03*
D17*
X111605923Y-64615923D03*
X114145923Y-64615923D03*
X116685923Y-64615923D03*
X119225923Y-64615923D03*
X121765923Y-64615923D03*
X124305923Y-64615923D03*
X126845923Y-64615923D03*
X129385923Y-64615923D03*
X131925923Y-64615923D03*
X131925923Y-56995923D03*
X129385923Y-56995923D03*
X126845923Y-56995923D03*
X124305923Y-56995923D03*
X121765923Y-56995923D03*
X119225923Y-56995923D03*
X116685923Y-56995923D03*
X114145923Y-56995923D03*
X111605923Y-56995923D03*
X109065923Y-56995923D03*
%TD*%
D18*
%TO.C,C13*%
X132179923Y-120271923D03*
X132179923Y-122146923D03*
%TD*%
D14*
%TO.C,C14*%
X128115923Y-118560923D03*
X128115923Y-116685923D03*
%TD*%
D20*
%TO.C,U15*%
X128031923Y-120307923D03*
X128031923Y-121257923D03*
X128031923Y-122207923D03*
X130231923Y-122207923D03*
X130231923Y-120307923D03*
%TD*%
D12*
%TO.C,J2*%
X77315923Y-129385923D03*
D13*
X79855923Y-129385923D03*
X82395923Y-129385923D03*
X84935923Y-129385923D03*
X87475923Y-129385923D03*
X90015923Y-129385923D03*
X92555923Y-129385923D03*
X95095923Y-129385923D03*
X97635923Y-129385923D03*
X100175923Y-129385923D03*
X102715923Y-129385923D03*
X105255923Y-129385923D03*
X107795923Y-129385923D03*
X110335923Y-129385923D03*
X112875923Y-129385923D03*
X115415923Y-129385923D03*
%TD*%
D21*
%TO.C,C5*%
X86131500Y-80010000D03*
X84556500Y-80010000D03*
%TD*%
D18*
%TO.C,3v3*%
X130147923Y-116685923D03*
X130147923Y-118560923D03*
%TD*%
%TO.C,5V0*%
X132179923Y-116681323D03*
X132179923Y-118556323D03*
%TD*%
D14*
%TO.C,R10*%
X128369923Y-114926423D03*
X128369923Y-113051423D03*
%TD*%
%TO.C,R11*%
X130274923Y-114926423D03*
X130274923Y-113051423D03*
%TD*%
D21*
%TO.C,C15*%
X132865923Y-103985923D03*
X131290923Y-103985923D03*
%TD*%
D11*
%TO.C,C17*%
X134465923Y-72769423D03*
X134465923Y-71194423D03*
%TD*%
D19*
%TO.C,C18*%
X208760823Y-124305923D03*
X210335823Y-124305923D03*
%TD*%
D12*
%TO.C,J14*%
X128115923Y-129385923D03*
D13*
X128115923Y-126845923D03*
X130655923Y-129385923D03*
X130655923Y-126845923D03*
X133195923Y-129385923D03*
X133195923Y-126845923D03*
X135735923Y-129385923D03*
X135735923Y-126845923D03*
X138275923Y-129385923D03*
X138275923Y-126845923D03*
X140815923Y-129385923D03*
X140815923Y-126845923D03*
%TD*%
D22*
%TO.C,J17*%
X85090000Y-67310000D03*
D23*
X85090000Y-69810000D03*
X85090000Y-71810000D03*
X85090000Y-74310000D03*
D24*
X82380000Y-64240000D03*
X82380000Y-77380000D03*
%TD*%
D25*
%TO.C,R12*%
X114250000Y-100062500D03*
X114250000Y-98237500D03*
%TD*%
D26*
%TO.C,U5*%
X211935923Y-103985923D03*
D27*
X209395923Y-103985923D03*
X206855923Y-103985923D03*
X204315923Y-103985923D03*
X201775923Y-103985923D03*
X199235923Y-103985923D03*
X196695923Y-103985923D03*
X194155923Y-103985923D03*
X191615923Y-103985923D03*
X189075923Y-103985923D03*
X186535923Y-103985923D03*
X183995923Y-103985923D03*
X181455923Y-103985923D03*
X178915923Y-103985923D03*
X176375923Y-103985923D03*
X173835923Y-103985923D03*
X173835923Y-119225923D03*
X176375923Y-119225923D03*
X178915923Y-119225923D03*
X181455923Y-119225923D03*
X183995923Y-119225923D03*
X186535923Y-119225923D03*
X189075923Y-119225923D03*
X191615923Y-119225923D03*
X194155923Y-119225923D03*
X196695923Y-119225923D03*
X199235923Y-119225923D03*
X201775923Y-119225923D03*
X204315923Y-119225923D03*
X206855923Y-119225923D03*
X209395923Y-119225923D03*
X211935923Y-119225923D03*
%TD*%
D16*
%TO.C,U8*%
X149700923Y-100165923D03*
D17*
X152240923Y-100165923D03*
X154780923Y-100165923D03*
X157320923Y-100165923D03*
X159860923Y-100165923D03*
X162400923Y-100165923D03*
X164940923Y-100165923D03*
X164940923Y-92545923D03*
X162400923Y-92545923D03*
X159860923Y-92545923D03*
X157320923Y-92545923D03*
X154780923Y-92545923D03*
X152240923Y-92545923D03*
X149700923Y-92545923D03*
%TD*%
D28*
%TO.C,C20*%
X111600000Y-100100000D03*
X111600000Y-98200000D03*
%TD*%
D16*
%TO.C,U1*%
X93820923Y-90005923D03*
D17*
X96360923Y-90005923D03*
X98900923Y-90005923D03*
X101440923Y-90005923D03*
X103980923Y-90005923D03*
X106520923Y-90005923D03*
X109060923Y-90005923D03*
X109060923Y-82385923D03*
X106520923Y-82385923D03*
X103980923Y-82385923D03*
X101440923Y-82385923D03*
X98900923Y-82385923D03*
X96360923Y-82385923D03*
X93820923Y-82385923D03*
%TD*%
D16*
%TO.C,U6*%
X114160923Y-79845923D03*
D17*
X116700923Y-79845923D03*
X119240923Y-79845923D03*
X121780923Y-79845923D03*
X124320923Y-79845923D03*
X126860923Y-79845923D03*
X129400923Y-79845923D03*
X131940923Y-79845923D03*
X131940923Y-72225923D03*
X129400923Y-72225923D03*
X126860923Y-72225923D03*
X124320923Y-72225923D03*
X121780923Y-72225923D03*
X119240923Y-72225923D03*
X116700923Y-72225923D03*
X114160923Y-72225923D03*
%TD*%
D16*
%TO.C,U7*%
X114160923Y-90005923D03*
D17*
X116700923Y-90005923D03*
X119240923Y-90005923D03*
X121780923Y-90005923D03*
X124320923Y-90005923D03*
X126860923Y-90005923D03*
X129400923Y-90005923D03*
X131940923Y-90005923D03*
X131940923Y-82385923D03*
X129400923Y-82385923D03*
X126860923Y-82385923D03*
X124320923Y-82385923D03*
X121780923Y-82385923D03*
X119240923Y-82385923D03*
X116700923Y-82385923D03*
X114160923Y-82385923D03*
%TD*%
D14*
%TO.C,DCTRL6*%
X90015923Y-62075923D03*
X90015923Y-60200923D03*
%TD*%
%TO.C,DCTRL5*%
X91920923Y-62075923D03*
X91920923Y-60200923D03*
%TD*%
%TO.C,DCTRL4*%
X93825923Y-62075923D03*
X93825923Y-60200923D03*
%TD*%
%TO.C,DCTRL3*%
X95730923Y-62075923D03*
X95730923Y-60200923D03*
%TD*%
%TO.C,DVB1*%
X97635923Y-62075923D03*
X97635923Y-60200923D03*
%TD*%
%TO.C,DVB0*%
X99540923Y-62075923D03*
X99540923Y-60200923D03*
%TD*%
%TO.C,DVEN1*%
X101445923Y-62075923D03*
X101445923Y-60200923D03*
%TD*%
%TO.C,DCTRL7*%
X88110923Y-62075923D03*
X88110923Y-60200923D03*
%TD*%
D12*
%TO.C,J12*%
X86205923Y-56995923D03*
D13*
X88745923Y-56995923D03*
X91285923Y-56995923D03*
X93825923Y-56995923D03*
X96365923Y-56995923D03*
X98905923Y-56995923D03*
X101445923Y-56995923D03*
X103985923Y-56995923D03*
%TD*%
D28*
%TO.C,C21*%
X116850000Y-100100000D03*
X116850000Y-98200000D03*
%TD*%
D16*
%TO.C,U19*%
X210566000Y-78486000D03*
D17*
X210566000Y-81026000D03*
X210566000Y-83566000D03*
X210566000Y-86106000D03*
X210566000Y-88646000D03*
X210566000Y-91186000D03*
X210566000Y-93726000D03*
X210566000Y-96266000D03*
X218186000Y-96266000D03*
X218186000Y-93726000D03*
X218186000Y-91186000D03*
X218186000Y-88646000D03*
X218186000Y-86106000D03*
X218186000Y-83566000D03*
X218186000Y-81026000D03*
X218186000Y-78486000D03*
%TD*%
D21*
%TO.C,C11*%
X169543423Y-98753423D03*
X167968423Y-98753423D03*
%TD*%
D12*
%TO.C,J11*%
X220825923Y-91285923D03*
D13*
X220825923Y-88745923D03*
X220825923Y-86205923D03*
X220825923Y-83665923D03*
X220825923Y-81125923D03*
%TD*%
D16*
%TO.C,U17*%
X129380923Y-100165923D03*
D17*
X131920923Y-100165923D03*
X134460923Y-100165923D03*
X137000923Y-100165923D03*
X139540923Y-100165923D03*
X142080923Y-100165923D03*
X144620923Y-100165923D03*
X144620923Y-92545923D03*
X142080923Y-92545923D03*
X139540923Y-92545923D03*
X137000923Y-92545923D03*
X134460923Y-92545923D03*
X131920923Y-92545923D03*
X129380923Y-92545923D03*
%TD*%
D16*
%TO.C,U14*%
X185275923Y-78580923D03*
D17*
X185275923Y-81120923D03*
X185275923Y-83660923D03*
X185275923Y-86200923D03*
X185275923Y-88740923D03*
X185275923Y-91280923D03*
X185275923Y-93820923D03*
X192895923Y-93820923D03*
X192895923Y-91280923D03*
X192895923Y-88740923D03*
X192895923Y-86200923D03*
X192895923Y-83660923D03*
X192895923Y-81120923D03*
X192895923Y-78580923D03*
%TD*%
D19*
%TO.C,C19*%
X185075000Y-96350000D03*
X186650000Y-96350000D03*
%TD*%
%TO.C,C16*%
X219684500Y-74930000D03*
X221259500Y-74930000D03*
%TD*%
D14*
%TO.C,R9*%
X205500000Y-98219500D03*
X205500000Y-96344500D03*
%TD*%
%TO.C,R8*%
X203500000Y-98219500D03*
X203500000Y-96344500D03*
%TD*%
D29*
%TO.C,Y1*%
X196700000Y-86950000D03*
X196700000Y-91830000D03*
%TD*%
D16*
%TO.C,U20*%
X175115923Y-78600923D03*
D17*
X175115923Y-81140923D03*
X175115923Y-83680923D03*
X175115923Y-86220923D03*
X175115923Y-88760923D03*
X175115923Y-91300923D03*
X175115923Y-93840923D03*
X175115923Y-96380923D03*
X182735923Y-96380923D03*
X182735923Y-93840923D03*
X182735923Y-91300923D03*
X182735923Y-88760923D03*
X182735923Y-86220923D03*
X182735923Y-83680923D03*
X182735923Y-81140923D03*
X182735923Y-78600923D03*
%TD*%
D21*
%TO.C,C8*%
X189710923Y-96365923D03*
X188135923Y-96365923D03*
%TD*%
D10*
%TO.C,C4*%
X134465923Y-74521923D03*
X134465923Y-76096923D03*
%TD*%
D30*
%TO.C,C2*%
X195712500Y-77550000D03*
X197587500Y-77550000D03*
%TD*%
%TO.C,C1*%
X195712500Y-79500000D03*
X197587500Y-79500000D03*
%TD*%
D31*
%TO.C,C12*%
X180200000Y-70250000D03*
X174800000Y-70250000D03*
%TD*%
D32*
%TO.C,J9*%
X179890000Y-61065000D03*
X174110000Y-61065000D03*
D33*
X180200000Y-62205000D03*
X179400000Y-62205000D03*
D34*
X178250000Y-62205000D03*
X177250000Y-62205000D03*
X176750000Y-62205000D03*
X175750000Y-62205000D03*
D33*
X174600000Y-62205000D03*
X173800000Y-62205000D03*
X173800000Y-62205000D03*
X174600000Y-62205000D03*
D34*
X175250000Y-62205000D03*
X176250000Y-62205000D03*
X177750000Y-62205000D03*
X178750000Y-62205000D03*
D33*
X179400000Y-62205000D03*
X180200000Y-62205000D03*
D35*
X181320000Y-61565000D03*
D36*
X181320000Y-57385000D03*
D35*
X172680000Y-61565000D03*
D36*
X172680000Y-57385000D03*
%TD*%
D12*
%TO.C,J7*%
X185265923Y-74775923D03*
D13*
X187805923Y-74775923D03*
X190345923Y-74775923D03*
X192885923Y-74775923D03*
X195425923Y-74775923D03*
X197965923Y-74775923D03*
X200505923Y-74775923D03*
X203045923Y-74775923D03*
X205585923Y-74775923D03*
X208125923Y-74775923D03*
X210665923Y-74775923D03*
X213205923Y-74775923D03*
%TD*%
D37*
%TO.C,R7*%
X199000000Y-72300000D03*
X197125000Y-72300000D03*
%TD*%
D14*
%TO.C,R6*%
X199200000Y-98225000D03*
X199200000Y-96350000D03*
%TD*%
%TO.C,R5*%
X201200000Y-98237500D03*
X201200000Y-96362500D03*
%TD*%
D16*
%TO.C,U12*%
X91300923Y-79845923D03*
D17*
X93840923Y-79845923D03*
X96380923Y-79845923D03*
X98920923Y-79845923D03*
X101460923Y-79845923D03*
X104000923Y-79845923D03*
X106540923Y-79845923D03*
X109080923Y-79845923D03*
X109080923Y-72225923D03*
X106540923Y-72225923D03*
X104000923Y-72225923D03*
X101460923Y-72225923D03*
X98920923Y-72225923D03*
X96380923Y-72225923D03*
X93840923Y-72225923D03*
X91300923Y-72225923D03*
%TD*%
D12*
%TO.C,J10*%
X175500000Y-64900000D03*
D13*
X178040000Y-64900000D03*
%TD*%
D38*
%TO.C,J6*%
X212870200Y-66661131D03*
X187870200Y-66661131D03*
D16*
X196055200Y-68081131D03*
D23*
X198345200Y-68081131D03*
X200635200Y-68081131D03*
X202925200Y-68081131D03*
X205215200Y-68081131D03*
X194910200Y-66101131D03*
X197200200Y-66101131D03*
X199490200Y-66101131D03*
X201780200Y-66101131D03*
X204070200Y-66101131D03*
X196055200Y-64121131D03*
X198345200Y-64121131D03*
X200635200Y-64121131D03*
X202925200Y-64121131D03*
X205215200Y-64121131D03*
%TD*%
D12*
%TO.C,J15*%
X181465923Y-129385923D03*
D13*
X181465923Y-126845923D03*
X184005923Y-129385923D03*
X184005923Y-126845923D03*
X186545923Y-129385923D03*
X186545923Y-126845923D03*
X189085923Y-129385923D03*
X189085923Y-126845923D03*
%TD*%
D12*
%TO.C,J16*%
X194155923Y-129385923D03*
D13*
X194155923Y-126845923D03*
X196695923Y-129385923D03*
X196695923Y-126845923D03*
X199235923Y-129385923D03*
X199235923Y-126845923D03*
X201775923Y-129385923D03*
X201775923Y-126845923D03*
X204315923Y-129385923D03*
X204315923Y-126845923D03*
X206855923Y-129385923D03*
X206855923Y-126845923D03*
X209395923Y-129385923D03*
X209395923Y-126845923D03*
X211935923Y-129385923D03*
X211935923Y-126845923D03*
%TD*%
D39*
%TO.C,R23*%
X142750000Y-82625000D03*
X142750000Y-84450000D03*
%TD*%
D12*
%TO.C,J20*%
X161140923Y-129390923D03*
D13*
X161140923Y-126850923D03*
X163680923Y-129390923D03*
X163680923Y-126850923D03*
X166220923Y-129390923D03*
X166220923Y-126850923D03*
X168760923Y-129390923D03*
X168760923Y-126850923D03*
X171300923Y-129390923D03*
X171300923Y-126850923D03*
%TD*%
D25*
%TO.C,R54*%
X96850000Y-65700000D03*
X96850000Y-63875000D03*
%TD*%
D12*
%TO.C,J1*%
X83616800Y-59542600D03*
D13*
X83616800Y-57002600D03*
%TD*%
D40*
%TO.C,Y2*%
X195500000Y-83050000D03*
X197700000Y-83050000D03*
X197700000Y-81350000D03*
X195500000Y-81350000D03*
%TD*%
D41*
%TO.C,R30*%
X218328000Y-69342000D03*
D42*
X217028000Y-69342000D03*
%TD*%
D43*
%TO.C,H2*%
X217777923Y-60043923D03*
%TD*%
D39*
%TO.C,R25*%
X146786600Y-82625000D03*
X146786600Y-84450000D03*
%TD*%
D16*
%TO.C,U21*%
X73909000Y-89906000D03*
D17*
X76449000Y-89906000D03*
X78989000Y-89906000D03*
X81529000Y-89906000D03*
X84069000Y-89906000D03*
X86609000Y-89906000D03*
X89149000Y-89906000D03*
X89149000Y-82286000D03*
X86609000Y-82286000D03*
X84069000Y-82286000D03*
X81529000Y-82286000D03*
X78989000Y-82286000D03*
X76449000Y-82286000D03*
X73909000Y-82286000D03*
%TD*%
D39*
%TO.C,R22*%
X164500000Y-103087500D03*
X164500000Y-104912500D03*
%TD*%
D43*
%TO.C,H3*%
X119225923Y-117574923D03*
%TD*%
D25*
%TO.C,R57*%
X102850000Y-65712500D03*
X102850000Y-63887500D03*
%TD*%
D39*
%TO.C,R59*%
X183500000Y-57737500D03*
X183500000Y-59562500D03*
%TD*%
D25*
%TO.C,R55*%
X98850000Y-65712500D03*
X98850000Y-63887500D03*
%TD*%
D44*
%TO.C,C25*%
X77470000Y-79756000D03*
X79020000Y-79756000D03*
%TD*%
D45*
%TO.C,C22*%
X86156800Y-60198000D03*
X86156800Y-62098000D03*
%TD*%
D39*
%TO.C,R17*%
X148800000Y-82625000D03*
X148800000Y-84450000D03*
%TD*%
D46*
%TO.C,C23*%
X216408000Y-75349400D03*
X216408000Y-73799400D03*
%TD*%
D25*
%TO.C,R52*%
X92850000Y-65700000D03*
X92850000Y-63875000D03*
%TD*%
%TO.C,R56*%
X100850000Y-65712500D03*
X100850000Y-63887500D03*
%TD*%
%TO.C,R58*%
X183500000Y-63000000D03*
X183500000Y-61175000D03*
%TD*%
D43*
%TO.C,H1*%
X76553923Y-60043923D03*
%TD*%
D25*
%TO.C,R53*%
X94850000Y-65712500D03*
X94850000Y-63887500D03*
%TD*%
%TO.C,R51*%
X90850000Y-65700000D03*
X90850000Y-63875000D03*
%TD*%
D46*
%TO.C,C24*%
X182150000Y-66075000D03*
X182150000Y-64525000D03*
%TD*%
D25*
%TO.C,R50*%
X88850000Y-65700000D03*
X88850000Y-63875000D03*
%TD*%
D16*
%TO.C,U13*%
X200416000Y-78481000D03*
D17*
X200416000Y-81021000D03*
X200416000Y-83561000D03*
X200416000Y-86101000D03*
X200416000Y-88641000D03*
X200416000Y-91181000D03*
X200416000Y-93721000D03*
X208036000Y-93721000D03*
X208036000Y-91181000D03*
X208036000Y-88641000D03*
X208036000Y-86101000D03*
X208036000Y-83561000D03*
X208036000Y-81021000D03*
X208036000Y-78481000D03*
%TD*%
D12*
%TO.C,J8*%
X220726000Y-69850000D03*
D13*
X220726000Y-72390000D03*
%TD*%
D43*
%TO.C,H4*%
X217777923Y-126337923D03*
%TD*%
D39*
%TO.C,R24*%
X144750000Y-82625000D03*
X144750000Y-84450000D03*
%TD*%
M02*
